# xmcd
#
# Track frame offsets: 
#        150
#        16901
#        29870
#        42003
#        60183
#        73201
#        92265
#        109706
#        127133
#        145877
#        164266
#        187991
#
# Disc length: 2663 seconds
#
# Revision: 0
# Processed by: cddbd v1.4b42PL1 Copyright (c) Steve Scherf et al.
# Submitted via: ExactAudioCopy v0.90a11
#
DISCID=9e0a650c
DTITLE=J.J. Cale - Hammersmith Odeon - London, England - 10.06.94 - Di
DTITLE=sc 1
DYEAR=1900
DGENRE=
TTITLE0=Cajun Moon
TTITLE1=Artificial Paradise
TTITLE2=People Lie
TTITLE3=Sensitive Kind
TTITLE4=Devil In Disguise
TTITLE5=After Midnight
TTITLE6=Humdinger
TTITLE7=Christine Lakeland - Black Cat
TTITLE8=Rocky Frisco - Feel So Bad
TTITLE9=Downtown L.A.
TTITLE10=Call Me The Breeze
TTITLE11=Ain't Love Funny
EXTD=
EXTT0=
EXTT1=
EXTT2=
EXTT3=
EXTT4=
EXTT5=
EXTT6=
EXTT7=
EXTT8=
EXTT9=
EXTT10=
EXTT11=
PLAYORDER=
